HIERARCHY
ROOT Hips
{
  OFFSET -35.4901 99.2528 17.4586
  CHANNELS 6 Xposition Yposition Zposition Zrotation Xrotation Yrotation
  JOINT LeftUpLeg
  {
    OFFSET 8.64259 1.95398 -2.38835
    CHANNELS 3 Zrotation Xrotation Yrotation
    JOINT LeftLeg
    {
      OFFSET 43.7702 0 0
      CHANNELS 3 Zrotation Xrotation Yrotation
      JOINT LeftFoot
      {
        OFFSET 40.6238 0 0
        CHANNELS 3 Zrotation Xrotation Yrotation
        JOINT LeftToeBase
        {
          OFFSET 12.7242 0 0
          CHANNELS 3 Zrotation Xrotation Yrotation
          End Site
          {
            OFFSET 0 0 0
          }
        }
      }
    }
  }
  JOINT RightUpLeg
  {
    OFFSET -8.2249 1.95398 -2.59336
    CHANNELS 3 Zrotation Xrotation Yrotation
    JOINT RightLeg
    {
      OFFSET 43.5653 0 0
      CHANNELS 3 Zrotation Xrotation Yrotation
      JOINT RightFoot
      {
        OFFSET 40.6238 0 0
        CHANNELS 3 Zrotation Xrotation Yrotation
        JOINT RightToeBase
        {
          OFFSET 12.7242 0 0
          CHANNELS 3 Zrotation Xrotation Yrotation
          End Site
          {
            OFFSET 0 0 0
          }
        }
      }
    }
  }
  JOINT Spine
  {
    OFFSET 0.165834 0.87714 6.61349
    CHANNELS 3 Zrotation Xrotation Yrotation
    JOINT Spine1
    {
      OFFSET 7.38963 1.71661e-005 0
      CHANNELS 3 Zrotation Xrotation Yrotation
      JOINT Spine2
      {
        OFFSET 11.9445 1.14441e-005 0
        CHANNELS 3 Zrotation Xrotation Yrotation
        JOINT Spine3
        {
          OFFSET 14.7254 4.19617e-005 0
          CHANNELS 3 Zrotation Xrotation Yrotation
          JOINT Spine4
          {
            OFFSET 10.9679 0 0
            CHANNELS 3 Zrotation Xrotation Yrotation
            JOINT RightShoulder
            {
              OFFSET 2.46616 -1.6653 3.69651
              CHANNELS 3 Zrotation Xrotation Yrotation
              JOINT RightArm
              {
                OFFSET 13.0012 0 0
                CHANNELS 3 Zrotation Xrotation Yrotation
                JOINT RightForeArm
                {
                  OFFSET 28.7848 1.52588e-005 0
                  CHANNELS 3 Zrotation Xrotation Yrotation
                  JOINT RightHand
                  {
                    OFFSET 26.5688 1.52588e-005 0
                    CHANNELS 3 Zrotation Xrotation Yrotation
                    End Site
                    {
                      OFFSET 0 0 0
                    }
                  }
                }
              }
            }
            JOINT LeftShoulder
            {
              OFFSET 2.38034 -1.29275 -3.7523
              CHANNELS 3 Zrotation Xrotation Yrotation
              JOINT LeftArm
              {
                OFFSET 16.3182 6.10351e-005 0
                CHANNELS 3 Zrotation Xrotation Yrotation
                JOINT LeftForeArm
                {
                  OFFSET 27.0901 0 0
                  CHANNELS 3 Zrotation Xrotation Yrotation
                  JOINT LeftHand
                  {
                    OFFSET 24.5451 1.52588e-005 0
                    CHANNELS 3 Zrotation Xrotation Yrotation
                    End Site
                    {
                      OFFSET 0 0 0
                    }
                  }
                }
              }
            }
            JOINT Neck
            {
              OFFSET 5.0226 -0.0266342 0
              CHANNELS 3 Zrotation Xrotation Yrotation
              JOINT Head
              {
                OFFSET 6.69364 2.86102e-005 0
                CHANNELS 3 Zrotation Xrotation Yrotation
                End Site
                {
                  OFFSET 0 0 0
                }
              }
            }
          }
        }
      }
    }
  }
}
MOTION
Frames:	12
Frame Time:	0.0416667
-152.923 76.6635 -154.387 -67.0659 -68.2536 -67.0074 -177.463 62.6562 128.1 -73.8538 10.4638 1.25882 81.8907 9.53294 -1.7357 31.1008 -2.03953 3.39918 176.859 41.9463 62.8827 -66.2755 -22.1434 -4.47932 86.0581 -11.5518 3.36989 40.443 0.658877 -4.91919 0.570179 9.5918 -90.8293 7.69312 0.777753 -1.6773 -3.97873 0.703176 -1.70989 -26.5095 1.24585 -1.36609 -6.49688 1.24584 -1.3661 86.0153 -26.2378 -116.508 21.9285 -26.9856 -15.4947 -31.7232 -10.053 -71.9878 -28.4081 2.90906 -21.4081 -86.0768 -45.866 83.9745 -5.10131 33.1082 -8.21524 23.2941 -17.0712 -93.4195 7.3071 -1.42871 -20.0762 38.292 2.07631 0.969781 -7.58828 1.36446 2.58594 
-147.93 77.9547 -149.673 -66.2537 -72.9995 -65.222 -174.125 60.4748 122.182 -70.3694 16.036 0.728501 77.6131 7.84513 -2.38967 34.339 -2.42834 4.05492 174.244 32.5027 61.7049 -57.103 -21.2377 -6.5618 78.9549 -8.48536 3.49645 45.2689 0.948831 -8.46655 0.607895 9.4298 -90.7239 8.01743 0.896532 -1.48038 -3.65409 0.830515 -1.5184 -26.1873 1.29996 -1.14256 -6.17466 1.29997 -1.14254 86.2408 -25.945 -116.21 26.735 -24.8114 -11.239 -29.9738 -8.52072 -74.099 -27.481 3.08113 -22.3305 -85.9892 -41.3223 83.3482 5.75336 33.9561 -17.0109 20.1401 -18.1329 -95.7201 8.17753 -1.48762 -19.3863 34.5194 -1.3334 -2.79476 -6.53391 -0.174074 3.31985 
-142.126 81.2727 -143.858 -58.3962 -77.8023 -54.2703 -172.189 58.671 116.275 -71.3091 16.8208 0.319849 75.0192 7.17494 -1.79296 29.4976 -1.34724 2.1865 171.224 20.0886 64.0836 -41.7515 -19.1855 -8.23908 60.848 -1.71615 4.27714 53.0734 0.482961 -10.7553 0.491265 9.05226 -91.01 8.77187 0.531428 -2.03048 -2.90062 0.441568 -2.05188 -25.4262 1.11702 -1.77703 -5.41357 1.11702 -1.77703 86.8709 -26.3051 -114.729 30.0534 -23.3676 -4.97209 -29.0539 -5.73106 -77.4746 -25.7658 3.50306 -25.108 -85.9544 -36.4098 82.4695 12.8727 32.2599 -27.5964 18.8634 -18.0161 -95.7684 8.00444 -1.44515 -19.1378 28.973 -3.88021 -8.37458 -6.42702 -0.653736 5.66198 
-135.082 84.6021 -136.997 -37.5097 -80.4864 -30.8678 -171.374 54.4461 110.402 -69.8517 14.8283 1.2053 77.5876 8.56864 -2.48218 31.0274 -2.02666 3.38661 170.94 13.5082 66.9805 -36.5349 -15.7679 -10.876 57.0518 0.774826 -0.140031 25.4373 1.10114 -3.16605 0.136429 8.54124 -91.3494 9.77974 -0.33894 -2.64725 -1.89382 -0.455079 -2.62978 -24.4077 0.472048 -2.62678 -4.39503 0.472042 -2.62679 88.1171 -26.6298 -112.018 30.1131 -23.8997 0.23067 -30.3158 -2.10145 -81.521 -22.9038 3.65005 -28.6297 -86.3301 -32.4726 80.9536 15.3302 29.5359 -32.6195 16.4415 -17.6749 -97.5086 8.77628 -1.80215 -21.7806 20.7328 -4.11863 -14.9484 -6.27678 0.433805 9.0918 
-127.877 87.0358 -130.851 -40.4739 -81.5421 -31.9033 -170.403 47.5326 106.357 -69.3921 8.51531 0.978283 82.7551 10.1848 -5.36273 30.131 -1.86417 3.11818 172.466 12.8483 69.8063 -42.6778 -20.2323 -11.022 64.0534 -2.26931 -4.1357 14.1821 -0.868071 3.27176 0.21499 8.50547 -91.6616 9.84652 -0.324736 -3.27057 -1.82845 -0.468306 -3.25314 -24.3314 0.672673 -3.21713 -4.31877 0.672672 -3.21715 91.0836 -24.7205 -106.623 31.9607 -25.9435 2.40538 -31.2393 2.68152 -85.7233 -18.8236 2.94105 -29.0728 -86.5677 -28.804 79.5877 16.4928 24.8088 -33.7183 19.6563 -18.5243 -99.6361 10.9273 -2.02024 -20.81 17.1229 -1.69783 -14.0726 -6.62055 1.99604 10.3243 
-120.041 89.1015 -125.759 -59.9704 -79.3483 -51.3455 -167.897 39.5163 100.652 -66.5445 2.14377 -1.64908 85.5737 11.0893 -3.9871 30.71 -0.96231 1.47923 173.781 20.1803 71.5997 -52.6259 -19.2131 -7.37778 66.4349 -3.69743 -3.92541 14.5022 -0.848661 3.20848 0.273882 8.57801 -91.7535 9.70093 -0.246775 -3.45857 -1.97455 -0.398655 -3.44438 -24.4741 0.803459 -3.37308 -4.46142 0.803461 -3.37309 91.5675 -23.8425 -105.934 30.6416 -28.0646 2.9585 -27.9637 5.82032 -90.5785 -15.1601 2.55915 -30.5284 -86.0261 -28.891 80.667 15.2963 24.0925 -26.1812 17.5906 -18.4695 -101.861 8.98019 -1.50307 -18.5363 16.2422 4.37903 -8.72743 -9.01357 6.03092 11.1325 
-111.851 91.5431 -120.636 -69.2844 -71.8989 -62.9744 -163.171 31.9663 95.0388 -59.5698 -0.101106 -8.33445 83.2675 10.1674 -1.14747 31.0398 2.54562 -4.68484 176.073 31.8201 74.6625 -60.725 -15.8297 -4.64842 73.9839 -7.5181 -5.29166 15.065 -0.614314 2.72474 0.354064 8.4458 -91.4773 9.97391 0.0342587 -2.93527 -1.70034 -0.0948984 -2.93394 -24.2108 0.914507 -2.7895 -4.19814 0.91451 -2.7895 90.455 -24.082 -108.26 26.1282 -33.6906 0.90454 -26.4376 9.16772 -90.8542 -15.2789 2.74016 -30.5054 -84.8137 -31.709 83.6411 10.2297 26.6464 -12.1141 17.7281 -19.5104 -104.713 9.8903 -1.6791 -19.1013 14.5659 12.4685 -2.00845 -11.8642 11.7576 10.9356 
-104.2 93.5527 -115.75 -70.3286 -65.1651 -67.4331 -159.951 28.0593 91.4768 -51.2826 9.00624 -14.4771 70.0036 4.24689 0.960123 37.1863 2.60222 -6.18287 175.577 40.9565 79.908 -62.5399 -15.3694 -1.96808 75.2749 -7.56639 -2.31926 18.5267 -0.942895 3.20131 0.497221 8.43227 -90.9906 10.0114 0.54029 -2.01068 -1.66101 0.451293 -2.0325 -24.1871 1.11952 -1.75548 -4.17449 1.11954 -1.75547 88.7452 -26.4116 -110.821 19.8185 -37.1162 -2.28792 -30.5916 9.68976 -88.2693 -18.7167 3.27738 -29.887 -84.3937 -35.388 85.0851 4.1014 29.1614 -0.464448 20.3628 -21.37 -105.789 9.05764 -1.41357 -17.4973 15.622 18.3676 2.93139 -13.7309 16.0108 11.3122 
-96.7957 93.5679 -110.837 -67.1149 -63.4971 -67.533 -159.905 29.9857 88.8871 -53.2361 17.8422 -13.3179 62.1923 0.856824 -5.95997 43.0456 -2.55314 4.20582 171.432 45.2673 84.7624 -60.5445 -21.054 1.04648 72.9828 -5.90104 0.19329 26.1668 -0.575002 1.81204 0.536662 8.47008 -90.6167 9.93672 0.789469 -1.28806 -1.73466 0.732019 -1.32156 -24.2684 1.14008 -0.991283 -4.25575 1.14006 -0.991285 87.0144 -26.9691 -114.094 17.8136 -35.4109 -1.25654 -33.2625 8.14602 -88.2075 -21.1571 3.63801 -29.6519 -85.2925 -37.6849 83.8891 -3.96024 29.8218 3.55961 26.5248 -21.5775 -100.874 8.75979 -1.48503 -18.6066 17.541 20.6577 4.61647 -14.3771 17.5813 11.9366 
-89.8499 92.5778 -105.971 -62.9113 -66.3001 -65.3465 -160.398 35.5048 88.9029 -67.7129 8.59754 -8.30784 71.4242 4.51778 -2.5771 35.6287 -0.837583 0.905402 168.052 44.1225 86.7392 -56.0151 -26.7925 3.20935 71.8188 -5.05938 2.22293 32.9273 -0.0984569 -0.352986 0.423609 8.61963 -90.4104 9.63654 0.659192 -0.865211 -2.03454 0.620472 -0.8934 -24.5697 0.88875 -0.6271 -4.55705 0.888747 -0.627115 86.5677 -27.3357 -114.808 15.9521 -33.9241 -2.88227 -29.5126 7.68431 -89.3303 -20.5481 3.43353 -28.4087 -85.7881 -40.393 83.5158 -10.9952 30.7133 2.15506 27.8388 -18.6987 -94.8015 12.4677 -1.84188 -17.7358 18.8385 20.7762 3.21539 -13.9442 17.9229 13.3253 
-83.8078 90.8697 -100.962 -63.8302 -68.9832 -66.5871 -160.926 40.9228 95.043 -76.3791 -0.0868909 -4.4806 76.9515 7.16698 0.282434 32.2669 2.36128 -4.57159 169.454 37.1292 86.4067 -52.7534 -13.7816 1.73074 80.1704 -8.25873 5.73421 27.0816 0.210884 -0.124752 0.60048 8.79321 -90.2926 9.28912 1.0663 -0.65647 -2.38161 1.03639 -0.702768 -24.9196 1.2143 -0.30562 -4.90691 1.21429 -0.305621 87.1254 -28.117 -113.3 14.5321 -34.566 -6.85183 -32.6078 5.85004 -86.2193 -24.4382 4.12142 -28.6771 -85.9826 -45.4336 84.055 -15.8671 28.5191 1.58624 29.7683 -14.587 -88.4257 10.787 -1.40448 -15.8151 17.1353 19.5264 2.13036 -12.528 17.2628 12.9492 
-77.855 88.1491 -96.3449 -61.2052 -70.8523 -65.0884 -163.436 47.7032 103.344 -77.1271 -5.71232 -2.71038 77.6745 8.01765 1.25426 32.7479 2.99778 -5.86332 174.047 36.8821 81.4328 -59.1577 -1.56219 -1.73471 91.8177 -13.305 5.17848 21.927 1.72015 -3.03794 0.835622 8.7758 -89.9943 9.32584 1.669 -0.11337 -2.34401 1.6624 -0.186731 -24.8877 1.6259 0.393616 -4.87504 1.6259 0.393625 87.8507 -28.8104 -111.525 15.0624 -34.2341 -11.6239 -30.935 5.87738 -86.1182 -24.2475 3.7635 -26.6535 -85.0809 -50.4298 86.166 -19.8748 22.8444 6.34512 28.8088 -13.3475 -89.0435 8.22706 -1.48754 -19.394 16.9208 18.1507 1.15823 -12.5636 16.2656 12.1279 
